# Blender v2.93.0 OBJ File: 'shovel.blend'
# www.blender.org
mtllib shovel.mtl
o Handle_Cylinder
v 0.000000 -0.211317 -0.016951
v 0.000000 0.299271 -0.016951
v 0.005238 -0.211317 -0.016121
v 0.005238 0.299357 -0.016121
v 0.009963 -0.211317 -0.013713
v 0.009963 0.298263 -0.013713
v 0.013713 -0.211317 -0.009963
v 0.013713 0.295939 -0.009963
v 0.016121 -0.211317 -0.005238
v 0.016121 0.292674 -0.005238
v 0.016951 -0.211317 0.000000
v 0.016951 0.290923 0.000000
v 0.016121 -0.211317 0.005238
v 0.016121 0.292674 0.005238
v 0.013713 -0.211317 0.009963
v 0.013713 0.295939 0.009963
v 0.009963 -0.211317 0.013713
v 0.009963 0.298263 0.013713
v 0.005238 -0.211317 0.016121
v 0.005238 0.299357 0.016121
v -0.000000 -0.211317 0.016951
v -0.000000 0.299271 0.016951
v -0.005238 -0.211317 0.016121
v -0.009963 -0.211317 0.013713
v -0.013713 -0.211317 0.009963
v -0.016121 -0.211317 0.005238
v -0.016951 -0.211317 -0.000000
v -0.016121 -0.211317 -0.005238
v -0.013713 -0.211317 -0.009963
v -0.009963 -0.211317 -0.013713
v -0.005238 -0.211317 -0.016121
v 0.000000 0.185977 -0.016951
v 0.005238 0.185977 -0.016121
v 0.009963 0.185977 -0.013713
v 0.013713 0.185977 -0.009963
v 0.016121 0.185977 -0.005238
v 0.016951 0.185977 0.000000
v 0.016121 0.185977 0.005238
v 0.013713 0.185977 0.009963
v 0.009963 0.185977 0.013713
v 0.005238 0.185977 0.016121
v -0.000000 0.185977 0.016951
v -0.005238 0.185977 0.016121
v -0.009963 0.185977 0.013713
v -0.013713 0.185977 0.009963
v -0.016121 0.185977 0.005238
v -0.016951 0.185977 -0.000000
v -0.016121 0.185977 -0.005238
v -0.013713 0.185977 -0.009963
v -0.009963 0.185977 -0.013713
v -0.005238 0.185977 -0.016121
vt 1.000000 0.906463
vt 1.000000 1.000000
vt 0.950000 1.000000
vt 0.950000 0.906463
vt 0.900000 1.000000
vt 0.900000 0.906463
vt 0.850000 1.000000
vt 0.850000 0.906463
vt 0.800000 1.000000
vt 0.800000 0.906463
vt 0.750000 1.000000
vt 0.750000 0.906463
vt 0.700000 1.000000
vt 0.700000 0.906463
vt 0.650000 1.000000
vt 0.650000 0.906463
vt 0.600000 1.000000
vt 0.600000 0.906463
vt 0.550000 1.000000
vt 0.550000 0.906463
vt 0.500000 1.000000
vt 0.500000 0.906463
vt -0.000000 0.906463
vt 0.050000 0.906463
vt 0.100000 0.906463
vt 0.150000 0.906463
vt 0.200000 0.906463
vt 0.250000 0.906463
vt 0.300000 0.906463
vt 0.350000 0.906463
vt 0.400000 0.906463
vt 0.450000 0.906463
vt 0.750000 0.490000
vt 0.824164 0.478254
vt 0.891068 0.444164
vt 0.944164 0.391068
vt 0.978254 0.324164
vt 0.990000 0.250000
vt 0.978254 0.175836
vt 0.944164 0.108932
vt 0.891068 0.055836
vt 0.824164 0.021746
vt 0.750000 0.010000
vt 0.675836 0.021746
vt 0.608932 0.055836
vt 0.555836 0.108932
vt 0.521746 0.175836
vt 0.510000 0.250000
vt 0.521746 0.324164
vt 0.555836 0.391068
vt 0.608932 0.444164
vt 0.675836 0.478254
vt 0.050000 0.500000
vt -0.000000 0.500000
vt 0.100000 0.500000
vt 0.150000 0.500000
vt 0.200000 0.500000
vt 0.250000 0.500000
vt 0.300000 0.500000
vt 0.350000 0.500000
vt 0.400000 0.500000
vt 0.450000 0.500000
vt 0.500000 0.500000
vt 0.550000 0.500000
vt 0.600000 0.500000
vt 0.650000 0.500000
vt 0.700000 0.500000
vt 0.750000 0.500000
vt 0.800000 0.500000
vt 0.850000 0.500000
vt 0.900000 0.500000
vt 0.950000 0.500000
vt 1.000000 0.500000
vn 0.1564 0.0000 -0.9877
vn 0.4540 0.0000 -0.8910
vn 0.7071 0.0000 -0.7071
vn 0.8910 0.0000 -0.4540
vn 0.9877 0.0000 -0.1564
vn 0.9877 0.0000 0.1564
vn 0.8910 0.0000 0.4540
vn 0.7071 0.0000 0.7071
vn 0.4540 0.0000 0.8910
vn 0.1564 0.0000 0.9877
vn 0.8048 0.5935 0.0000
vn 0.5267 0.8500 0.0000
vn 0.2256 0.9742 0.0000
vn 0.0000 1.0000 0.0000
vn -0.0163 0.9999 0.0000
vn -1.0000 0.0000 -0.0000
vn 0.0000 -1.0000 0.0000
vn -0.1564 0.0000 -0.9877
vn -0.4540 0.0000 -0.8910
vn -0.7071 0.0000 -0.7071
vn -0.8910 0.0000 -0.4540
vn -0.9877 0.0000 -0.1564
vn -0.9877 0.0000 0.1564
vn -0.8910 0.0000 0.4540
vn -0.7071 0.0000 0.7071
vn -0.4540 0.0000 0.8910
vn -0.1564 0.0000 0.9877
vn 0.9037 0.4283 0.0000
usemtl wood
s off
f 32/1/1 2/2/1 4/3/1 33/4/1
f 33/4/2 4/3/2 6/5/2 34/6/2
f 34/6/3 6/5/3 8/7/3 35/8/3
f 35/8/4 8/7/4 10/9/4 36/10/4
f 36/10/5 10/9/5 12/11/5 37/12/5
f 37/12/6 12/11/6 14/13/6 38/14/6
f 38/14/7 14/13/7 16/15/7 39/16/7
f 39/16/8 16/15/8 18/17/8 40/18/8
f 40/18/9 18/17/9 20/19/9 41/20/9
f 41/20/10 20/19/10 22/21/10 42/22/10
f 10/9/11 8/7/11 16/15/11 14/13/11
f 8/7/12 6/5/12 18/17/12 16/15/12
f 6/5/13 4/3/13 20/19/13 18/17/13
f 32/23/14 51/24/14 50/25/14 49/26/14 48/27/14 47/28/14 46/29/14 45/30/14 44/31/14 43/32/14 42/22/14
f 4/3/15 2/2/15 22/21/15 20/19/15
f 32/1/16 42/22/16 22/21/16 2/2/16
f 1/33/17 3/34/17 5/35/17 7/36/17 9/37/17 11/38/17 13/39/17 15/40/17 17/41/17 19/42/17 21/43/17 23/44/17 24/45/17 25/46/17 26/47/17 27/48/17 28/49/17 29/50/17 30/51/17 31/52/17
f 31/53/18 51/24/18 32/23/18 1/54/18
f 30/55/19 50/25/19 51/24/19 31/53/19
f 29/56/20 49/26/20 50/25/20 30/55/20
f 28/57/21 48/27/21 49/26/21 29/56/21
f 27/58/22 47/28/22 48/27/22 28/57/22
f 26/59/23 46/29/23 47/28/23 27/58/23
f 25/60/24 45/30/24 46/29/24 26/59/24
f 24/61/25 44/31/25 45/30/25 25/60/25
f 23/62/26 43/32/26 44/31/26 24/61/26
f 21/63/27 42/22/27 43/32/27 23/62/27
f 19/64/10 41/20/10 42/22/10 21/63/10
f 17/65/9 40/18/9 41/20/9 19/64/9
f 15/66/8 39/16/8 40/18/8 17/65/8
f 13/67/7 38/14/7 39/16/7 15/66/7
f 11/68/6 37/12/6 38/14/6 13/67/6
f 9/69/5 36/10/5 37/12/5 11/68/5
f 7/70/4 35/8/4 36/10/4 9/69/4
f 5/71/3 34/6/3 35/8/3 7/70/3
f 3/72/2 33/4/2 34/6/2 5/71/2
f 1/73/1 32/1/1 33/4/1 3/72/1
f 12/11/28 10/9/28 14/13/28
o Blade_Cube.001
v -0.014965 0.179707 0.100000
v -0.014965 0.400627 0.100000
v -0.014965 0.179707 -0.100000
v -0.014965 0.400627 -0.100000
v -0.008983 0.179707 0.100000
v -0.008983 0.400627 0.100000
v -0.008983 0.179707 -0.100000
v -0.008983 0.400627 -0.100000
v -0.002991 0.179707 0.000000
v -0.002991 0.503453 0.000000
v 0.002991 0.179707 0.000000
v 0.002991 0.503453 0.000000
v -0.014965 0.186861 0.100000
v -0.014965 0.186861 -0.100000
v -0.008983 0.186861 -0.100000
v -0.008983 0.186861 0.100000
v 0.002991 0.186907 0.000000
v -0.002991 0.186907 0.000000
v -0.010409 0.179707 0.000000
v -0.022383 0.179707 0.100000
v -0.022383 0.186861 -0.100000
v -0.022383 0.179707 -0.100000
v -0.010409 0.186907 0.000000
v -0.022383 0.186861 0.100000
v -0.006683 0.452040 -0.050000
v -0.000701 0.179707 -0.050000
v -0.006683 0.179707 -0.050000
v -0.000701 0.452040 -0.050000
v -0.000701 0.186884 -0.050000
v -0.006683 0.186884 -0.050000
v -0.014101 0.179707 -0.050000
v -0.014101 0.186884 -0.050000
v -0.006683 0.179707 0.050000
v -0.000701 0.452040 0.050000
v -0.006683 0.452040 0.050000
v -0.000701 0.179707 0.050000
v -0.006683 0.186884 0.050000
v -0.000701 0.186884 0.050000
v -0.014101 0.179707 0.050000
v -0.014101 0.186884 0.050000
vt 0.382179 0.187500
vt 0.625000 0.187500
vt 0.625000 0.250000
vt 0.382179 0.250000
vt 0.625000 0.500000
vt 0.382179 0.500000
vt 0.382179 0.687500
vt 0.625000 0.687500
vt 0.625000 0.750000
vt 0.382179 0.750000
vt 0.625000 1.000000
vt 0.382179 1.000000
vt 0.125000 0.687500
vt 0.375000 0.687500
vt 0.375000 0.750000
vt 0.125000 0.750000
vt 0.875000 0.687500
vt 0.875000 0.750000
vt 0.625000 0.562500
vt 0.875000 0.562500
vt 0.875000 0.625000
vt 0.625000 0.625000
vt 0.125000 0.562500
vt 0.375000 0.562500
vt 0.375000 0.625000
vt 0.125000 0.625000
vt 0.382179 0.562500
vt 0.382179 0.625000
vt 0.382179 0.062500
vt 0.625000 0.062500
vt 0.625000 0.125000
vt 0.382179 0.125000
vt 0.375000 1.000000
vt 0.382179 1.000000
vt 0.375000 1.000000
vt 0.375000 0.250000
vt 0.375000 0.500000
vt 0.382179 0.250000
vt 0.382179 0.187500
vt 0.375000 0.062500
vt 0.382179 0.062500
vt 0.382179 0.125000
vt 0.375000 0.125000
vt 0.375000 0.187500
vt 0.375000 0.250000
vt 0.125000 0.625000
vt 0.125000 0.562500
vt 0.125000 0.750000
vt 0.125000 0.687500
vt 0.125000 0.500000
vt 0.125000 0.500000
vt 0.875000 0.500000
vt 0.382179 0.000000
vt 0.382179 0.000000
vt 0.375000 0.000000
vt 0.625000 0.000000
vn -0.7119 0.6971 0.0847
vn -0.7224 0.5157 -0.4606
vn -0.6896 0.3002 -0.6590
vn -0.3082 0.3451 -0.8865
vn 0.5682 0.2864 -0.7714
vn 0.6467 0.0000 -0.7627
vn 0.9929 0.0000 0.1186
vn 0.6881 0.4717 0.5513
vn 0.5682 0.2864 0.7714
vn 0.6467 0.0000 0.7627
vn -0.6896 0.3002 0.6590
vn -0.3082 0.3451 0.8865
vn 0.0000 -1.0000 0.0000
vn 0.7119 -0.6970 0.0851
vn 0.5239 -0.5865 0.6178
vn 0.0000 -0.7071 0.7071
vn -0.7224 0.5157 0.4606
vn 0.6881 0.4717 -0.5513
vn -0.5631 0.8263 0.0000
vn 0.5883 0.8086 0.0000
vn 0.7119 -0.6970 -0.0851
vn 0.7229 -0.6909 0.0000
vn 0.9929 0.0000 -0.1186
vn 1.0000 0.0000 0.0000
vn -0.7119 0.6971 -0.0847
vn -0.7230 0.6908 0.0000
vn -0.6271 0.5690 0.5318
vn -0.6271 -0.5692 0.5318
vn 0.0000 -0.7071 -0.7071
vn 0.5239 -0.5865 -0.6178
vn -0.6271 0.5690 -0.5318
vn -0.6917 0.7174 0.0823
vn -0.6917 -0.7174 -0.0826
vn -0.6917 0.7174 -0.0823
vn -0.6896 0.7241 0.0000
vn -0.6897 -0.7241 0.0000
vn -0.6917 -0.7174 0.0826
vn -0.6271 -0.5692 -0.5318
usemtl blade
s 1
f 81/74/29 76/75/30 55/76/31 65/77/32
f 65/77/32 55/76/31 59/78/33 66/79/34
f 89/80/35 85/81/36 57/82/37 67/83/38
f 67/83/38 57/82/37 53/84/39 64/85/40
f 84/86/41 87/87/42 56/88/43 52/89/44
f 85/81/36 86/90/45 53/91/39 57/82/37
f 79/92/46 76/93/30 61/94/47 63/95/48
f 78/96/41 77/97/49 62/98/50 60/99/41
f 80/100/51 79/92/46 63/95/48 68/101/52
f 88/102/53 86/103/45 61/104/47 69/105/54
f 52/106/44 64/85/40 75/107/55 71/108/56
f 77/97/49 80/100/51 68/101/52 62/98/50
f 56/88/43 67/83/38 64/85/40 52/106/44
f 87/87/42 89/80/35 67/83/38 56/88/43
f 54/109/57 65/77/32 66/79/34 58/110/58
f 81/74/29 65/77/32 72/111/59 83/112/60
f 90/113/61 91/114/62 74/115/63 70/116/64
f 82/117/65 83/112/60 72/111/59 73/118/66
f 65/77/32 54/109/57 73/118/66 72/111/59
f 78/96/41 60/99/41 70/119/64 82/120/65
f 88/102/53 69/105/54 74/115/63 91/114/62
f 84/86/41 52/89/44 71/121/56 90/122/61
f 54/123/57 78/96/41 82/120/65 73/124/66
f 70/116/64 74/115/63 83/112/60 82/117/65
f 69/105/54 81/74/29 83/112/60 74/115/63
f 58/110/58 66/79/34 80/100/51 77/97/49
f 66/79/34 59/78/33 79/92/46 80/100/51
f 54/123/57 58/110/58 77/97/49 78/96/41
f 59/78/33 55/125/31 76/93/30 79/92/46
f 69/105/54 61/104/47 76/75/30 81/74/29
f 60/99/41 84/86/41 90/122/61 70/119/64
f 64/126/40 88/102/53 91/114/62 75/127/55
f 71/128/56 75/127/55 91/114/62 90/113/61
f 62/98/50 68/101/52 89/80/35 87/87/42
f 64/126/40 53/129/39 86/103/45 88/102/53
f 63/95/48 61/94/47 86/90/45 85/81/36
f 60/99/41 62/98/50 87/87/42 84/86/41
f 68/101/52 63/95/48 85/81/36 89/80/35
o Cylinder_Cylinder.002
v 0.000000 -0.204558 0.059970
v 0.000000 -0.204558 -0.059970
v 0.005253 -0.205391 0.059970
v 0.005253 -0.205390 -0.059970
v 0.009992 -0.207805 0.059970
v 0.009992 -0.207805 -0.059970
v 0.013753 -0.211566 0.059970
v 0.013753 -0.211566 -0.059970
v 0.016168 -0.216305 0.059970
v 0.016168 -0.216305 -0.059970
v 0.017000 -0.221558 0.059970
v 0.017000 -0.221558 -0.059970
v 0.016168 -0.226812 0.059970
v 0.016168 -0.226812 -0.059970
v 0.013753 -0.231551 0.059970
v 0.013753 -0.231551 -0.059970
v 0.009992 -0.235312 0.059970
v 0.009992 -0.235312 -0.059970
v 0.005253 -0.237726 0.059970
v 0.005253 -0.237726 -0.059970
v -0.000000 -0.238558 0.059970
v -0.000000 -0.238558 -0.059970
v -0.005253 -0.237726 0.059970
v -0.005253 -0.237726 -0.059970
v -0.009992 -0.235312 0.059970
v -0.009992 -0.235312 -0.059970
v -0.013753 -0.231551 0.059970
v -0.013753 -0.231551 -0.059970
v -0.016168 -0.226812 0.059970
v -0.016168 -0.226812 -0.059970
v -0.017000 -0.221558 0.059970
v -0.017000 -0.221558 -0.059970
v -0.016168 -0.216305 0.059970
v -0.016168 -0.216305 -0.059970
v -0.013753 -0.211566 0.059970
v -0.013753 -0.211566 -0.059970
v -0.009992 -0.207805 0.059970
v -0.009992 -0.207805 -0.059970
v -0.005253 -0.205391 0.059970
v -0.005253 -0.205390 -0.059970
vt 1.000000 0.500000
vt 1.000000 1.000000
vt 0.950000 1.000000
vt 0.950000 0.500000
vt 0.900000 1.000000
vt 0.900000 0.500000
vt 0.850000 1.000000
vt 0.850000 0.500000
vt 0.800000 1.000000
vt 0.800000 0.500000
vt 0.750000 1.000000
vt 0.750000 0.500000
vt 0.700000 1.000000
vt 0.700000 0.500000
vt 0.650000 1.000000
vt 0.650000 0.500000
vt 0.600000 1.000000
vt 0.600000 0.500000
vt 0.550000 1.000000
vt 0.550000 0.500000
vt 0.500000 1.000000
vt 0.500000 0.500000
vt 0.450000 1.000000
vt 0.450000 0.500000
vt 0.400000 1.000000
vt 0.400000 0.500000
vt 0.350000 1.000000
vt 0.350000 0.500000
vt 0.300000 1.000000
vt 0.300000 0.500000
vt 0.250000 1.000000
vt 0.250000 0.500000
vt 0.200000 1.000000
vt 0.200000 0.500000
vt 0.150000 1.000000
vt 0.150000 0.500000
vt 0.100000 1.000000
vt 0.100000 0.500000
vt 0.324164 0.478254
vt 0.250000 0.490000
vt 0.175836 0.478254
vt 0.108932 0.444164
vt 0.055836 0.391068
vt 0.021746 0.324164
vt 0.010000 0.250000
vt 0.021746 0.175836
vt 0.055836 0.108932
vt 0.108932 0.055836
vt 0.175836 0.021746
vt 0.250000 0.010000
vt 0.324164 0.021746
vt 0.391068 0.055836
vt 0.444164 0.108932
vt 0.478254 0.175836
vt 0.490000 0.250000
vt 0.478254 0.324164
vt 0.444164 0.391068
vt 0.391068 0.444164
vt 0.050000 1.000000
vt 0.050000 0.500000
vt -0.000000 1.000000
vt -0.000000 0.500000
vt 0.750000 0.490000
vt 0.824164 0.478254
vt 0.891068 0.444164
vt 0.944164 0.391068
vt 0.978254 0.324164
vt 0.990000 0.250000
vt 0.978254 0.175836
vt 0.944164 0.108932
vt 0.891068 0.055836
vt 0.824164 0.021746
vt 0.750000 0.010000
vt 0.675836 0.021746
vt 0.608932 0.055836
vt 0.555836 0.108932
vt 0.521746 0.175836
vt 0.510000 0.250000
vt 0.521746 0.324164
vt 0.555836 0.391068
vt 0.608932 0.444164
vt 0.675836 0.478254
vn -0.1564 -0.9877 0.0000
vn -0.4540 -0.8910 -0.0000
vn -0.7071 -0.7071 0.0000
vn -0.8910 -0.4540 0.0000
vn -0.9877 -0.1564 0.0000
vn -0.9877 0.1564 0.0000
vn -0.8910 0.4540 0.0000
vn -0.7071 0.7071 0.0000
vn -0.4540 0.8910 0.0000
vn -0.1564 0.9877 0.0000
vn 0.1564 0.9877 0.0000
vn 0.4540 0.8910 0.0000
vn 0.7071 0.7071 0.0000
vn 0.8910 0.4540 0.0000
vn 0.9877 0.1564 0.0000
vn 0.9877 -0.1564 0.0000
vn 0.8910 -0.4540 0.0000
vn 0.7071 -0.7071 0.0000
vn -0.0000 0.0000 1.0000
vn 0.4540 -0.8910 -0.0000
vn 0.1564 -0.9877 -0.0000
vn 0.0000 0.0000 -1.0000
usemtl wood
s off
f 92/130/67 93/131/67 95/132/67 94/133/67
f 94/133/68 95/132/68 97/134/68 96/135/68
f 96/135/69 97/134/69 99/136/69 98/137/69
f 98/137/70 99/136/70 101/138/70 100/139/70
f 100/139/71 101/138/71 103/140/71 102/141/71
f 102/141/72 103/140/72 105/142/72 104/143/72
f 104/143/73 105/142/73 107/144/73 106/145/73
f 106/145/74 107/144/74 109/146/74 108/147/74
f 108/147/75 109/146/75 111/148/75 110/149/75
f 110/149/76 111/148/76 113/150/76 112/151/76
f 112/151/77 113/150/77 115/152/77 114/153/77
f 114/153/78 115/152/78 117/154/78 116/155/78
f 116/155/79 117/154/79 119/156/79 118/157/79
f 118/157/80 119/156/80 121/158/80 120/159/80
f 120/159/81 121/158/81 123/160/81 122/161/81
f 122/161/82 123/160/82 125/162/82 124/163/82
f 124/163/83 125/162/83 127/164/83 126/165/83
f 126/165/84 127/164/84 129/166/84 128/167/84
f 95/168/85 93/169/85 131/170/85 129/171/85 127/172/85 125/173/85 123/174/85 121/175/85 119/176/85 117/177/85 115/178/85 113/179/85 111/180/85 109/181/85 107/182/85 105/183/85 103/184/85 101/185/85 99/186/85 97/187/85
f 128/167/86 129/166/86 131/188/86 130/189/86
f 130/189/87 131/188/87 93/190/87 92/191/87
f 92/192/88 94/193/88 96/194/88 98/195/88 100/196/88 102/197/88 104/198/88 106/199/88 108/200/88 110/201/88 112/202/88 114/203/88 116/204/88 118/205/88 120/206/88 122/207/88 124/208/88 126/209/88 128/210/88 130/211/88
